<?xml version="1.0" encoding="UTF-8"?>
<svg width="279px" height="54px" viewBox="0 0 279 54" version="1.1" xmlns="http://www.w3.org/2000/svg" xmlns:xlink="http://www.w3.org/1999/xlink">
    <title>Group 2</title>
    <g id="Identité" stroke="none" stroke-width="1" fill="none" fill-rule="evenodd">
        <g id="Logo" transform="translate(-102.000000, -179.000000)">
            <g id="Group-2" transform="translate(102.000000, 179.000000)">
                <g id="KHLINIC" transform="translate(62.950000, 7.250000)" fill="#090916" fill-rule="nonzero">
                    <path d="M9.8,16.6 L21.75,1.05 L33.85,1.05 L18.9,18.9 L35.25,38.75 L22.55,38.75 L9.8,22.4 L9.8,38.75 L0,38.75 L0,1.05 L9.8,1.05 L9.8,16.6 Z M49.4,15.6 L63.55,15.6 L63.55,1.05 L73.35,1.05 L73.35,38.75 L63.55,38.75 L63.55,23.2 L49.4,23.2 L49.4,38.75 L39.6,38.75 L39.6,1.05 L49.4,1.05 L49.4,15.6 Z M91.05,1.05 L91.05,30.45 L102.8,30.45 L102.8,38.75 L81.25,38.75 L81.25,1.05 L91.05,1.05 Z M117.65,1.05 L117.65,38.75 L107.85,38.75 L107.85,1.05 L117.65,1.05 Z M125.55,38.75 L125.55,1.05 L135.35,1.05 L153.45,24.1 L153.45,1.05 L163.2,1.05 L163.2,38.75 L153.45,38.75 L135.35,15.7 L135.35,38.75 L125.55,38.75 Z M180.9,1.05 L180.9,38.75 L171.1,38.75 L171.1,1.05 L180.9,1.05 Z M214.075553,11.7739188 C212.192599,10.2579729 210.017415,9.5 207.55,9.5 C206.083333,9.5 204.725,9.76666667 203.475,10.3 C202.225,10.8333333 201.15,11.5583333 200.25,12.475 C199.35,13.3916667 198.641667,14.4833333 198.125,15.75 C197.608333,17.0166667 197.35,18.3833333 197.35,19.85 C197.35,21.35 197.608333,22.7333333 198.125,24 C198.641667,25.2666667 199.358333,26.3666667 200.275,27.3 C201.191667,28.2333333 202.266667,28.9666667 203.5,29.5 C204.733333,30.0333333 206.066667,30.3 207.5,30.3 C209.864097,30.3 212.047926,29.5409749 214.051486,28.0229247 C215.317272,34.6076416 215.950166,37.9 215.950166,37.9 L214.95,38.25 C213.45,38.7833333 212.05,39.175 210.75,39.425 C209.45,39.675 208.166667,39.8 206.9,39.8 C204.3,39.8 201.808333,39.3083333 199.425,38.325 C197.041667,37.3416667 194.941667,35.9583333 193.125,34.175 C191.308333,32.3916667 189.85,30.275 188.75,27.825 C187.65,25.375 187.1,22.7 187.1,19.8 C187.1,16.9 187.641667,14.2416667 188.725,11.825 C189.808333,9.40833333 191.258333,7.325 193.075,5.575 C194.891667,3.825 197,2.45833333 199.4,1.475 C201.8,0.491666667 204.316667,0 206.95,0 C208.45,0 209.925,0.158333333 211.375,0.475 C212.825,0.791666667 214.35,1.28333333 215.950166,1.95 C215.950166,1.95 215.325295,5.22463961 214.075553,11.7739188 Z" id="Combined-Shape"></path>
                </g>
                <g id="Group" stroke="#090916" stroke-width="6">
                    <circle id="Oval" cx="30" cy="19" r="16"></circle>
                    <circle id="Oval" cx="19" cy="35" r="16"></circle>
                </g>
            </g>
        </g>
    </g>
</svg>